<?xml version="1.0"?>
<svg xmlns="http://www.w3.org/2000/svg" xmlns:cc="http://creativecommons.org/ns#" xmlns:xlink="http://www.w3.org/1999/xlink" xmlns:dc="http://purl.org/dc/elements/1.1/" xmlns:svg="http://www.w3.org/2000/svg" id="svg4305" viewBox="0 0 744.09 1052.4">
  <defs id="defs4307">
    <filter id="filter4890" y="-.16856" width="1.1681" height="1.3371" x="-.084028">
      <feGaussianBlur id="feGaussianBlur4892" stdDeviation="0.29224932"/>
    </filter>
    <linearGradient id="linearGradient4634">
      <stop id="stop4636" stop-color="#cb3b75" offset="0"/>
      <stop id="stop4638" stop-color="#fabcd7" offset=".45718"/>
      <stop id="stop4640" stop-color="#cc3a6e" offset="1"/>
    </linearGradient>
    <filter id="filter4926" y="-.38434" width="1.1313" height="1.7687" x="-.065654">
      <feGaussianBlur id="feGaussianBlur4928" stdDeviation="0.60299971"/>
    </filter>
    <linearGradient id="linearGradient6621">
      <stop id="stop6623" stop-color="#ffd5e5" offset="0"/>
      <stop id="stop6629" stop-color="#fff6fa" offset=".46923"/>
      <stop id="stop6625" stop-color="#ffd5e5" offset="1"/>
    </linearGradient>
    <filter id="filter4850" y="-.16013" width="1.1597" height="1.3203" x="-.079826">
      <feGaussianBlur id="feGaussianBlur4852" stdDeviation="0.27763686"/>
    </filter>
    <linearGradient id="linearGradient3190" y2="358.82" gradientUnits="userSpaceOnUse" x2="760.35" gradientTransform="translate(-13.967 14.902)" y1="358.82" x1="21.954">
      <stop id="stop5799" stop-color="#fd00a7" offset="0"/>
      <stop id="stop5805" stop-color="#ff99df" offset=".51875"/>
      <stop id="stop5801" stop-color="#fd00a7" offset="1"/>
    </linearGradient>
    <linearGradient id="linearGradient3208" y2="850.36" gradientUnits="userSpaceOnUse" x2="353.79" y1="1237.9" x1="351.49">
      <stop id="stop5789" stop-color="#fff" offset="0"/>
      <stop id="stop5795" stop-color="#fff" offset=".55422"/>
      <stop id="stop5791" stop-color="#fff" offset="1"/>
    </linearGradient>
    <linearGradient id="linearGradient3211" y2="177.61" gradientUnits="userSpaceOnUse" x2="748.99" y1="177.61" x1="-4.6496">
      <stop id="stop5809" stop-color="#448AFF" offset="0"/>
      <stop id="stop5815" stop-color="#448AFF" offset=".51991"/>
      <stop id="stop5811" stop-color="#448AFF" offset="1"/>
    </linearGradient>
    <linearGradient id="linearGradient3725" y2="199.65" gradientUnits="userSpaceOnUse" x2="343.51" gradientTransform="matrix(.87844 -.020070 .016659 .72915 40.164 74.886)" y1="199.65" x1="361.73">
      <stop id="stop4760" stop-color="#cb3b75" offset="0"/>
      <stop id="stop4762" stop-color="#fabcd7" offset=".45181"/>
      <stop id="stop4764" stop-color="#cc3a6e" offset="1"/>
    </linearGradient>
    <linearGradient id="linearGradient3727" y2="206.86" xlink:href="#linearGradient4634" gradientUnits="userSpaceOnUse" x2="350.2" gradientTransform="matrix(.99977 -.021628 .021628 .99977 -4.5652 6.3959)" y1="208.56" x1="345.17"/>
    <linearGradient id="linearGradient3729" y2="206.86" xlink:href="#linearGradient4634" gradientUnits="userSpaceOnUse" x2="350.2" gradientTransform="matrix(-.99977 -.021628 -.021628 .99977 711.81 6.4593)" y1="208.56" x1="345.17"/>
    <linearGradient id="linearGradient3799" y2="562.61" xlink:href="#linearGradient6621" gradientUnits="userSpaceOnUse" x2="385.73" gradientTransform="matrix(.068883 0 0 .068883 350.24 130.66)" y1="563.35" x1="212.27"/>
    <radialGradient id="radialGradient3801" gradientUnits="userSpaceOnUse" cy="398.43" cx="405.45" gradientTransform="matrix(1.3411 -.16254 .20602 1.7451 -220.38 -230.96)" r="27.02">
      <stop id="stop6609" stop-color="#3485ff" offset="0"/>
      <stop id="stop6615" stop-color="#a3ccdd" offset=".47634"/>
      <stop id="stop6611" stop-color="#3485ff" offset="1"/>
    </radialGradient>
    <radialGradient id="radialGradient3803" gradientUnits="userSpaceOnUse" cy="401.16" cx="376.5" gradientTransform="matrix(1 0 0 1.1429 0 -57.309)" r="3.5987">
      <stop id="stop6601" stop-color="#f0f0f0" offset="0"/>
      <stop id="stop6603" stop-color="#f0f0f0" stop-opacity="0" offset="1"/>
    </radialGradient>
    <linearGradient id="linearGradient3805" y2="562.61" xlink:href="#linearGradient6621" gradientUnits="userSpaceOnUse" x2="385.73" gradientTransform="matrix(-.068883 0 0 .068883 422.69 130.66)" y1="563.35" x1="212.27"/>
    <filter id="filter5933">
      <feGaussianBlur id="feGaussianBlur5935" stdDeviation="0.13580239"/>
    </filter>
    <filter id="filter5953">
      <feGaussianBlur id="feGaussianBlur5955" stdDeviation="0.10826644"/>
    </filter>
  </defs>
  <g id="layer1">
    <g id="g3035">
      <g id="g6064">
        <path id="rect7724" opacity=".79808" d="m-0.26545 0.023583l744.9 0.024699-0.01 355.07c0 0.01-502.84-79.13-744.91 0.07l0.02455-355.17z" stroke-opacity="0" fill="url(#linearGradient3211)"/>
        <path id="path4246" d="m2.5379 355.19c242.83-92.21 476.89-92.75 744.91-0.1l3.68 697.51-751.14-0.2 2.5479-697.21z" fill="url(#linearGradient3208)"/>
        <g id="g5967">
          <path id="path5929" d="m282.28 291.81c-11.49-0.01-31.03 38.89-31.58 67.7-0.31 16.41 2.97 35.25 11.52 46.41 12.73 16.65 24.91 21.37 40.87 35.13 15.34 13.23 22.47 29.86 25.06 40.77 4.35 18.3 5.36 32.78 0 47.96-9.05 25.63-24.59 60.68-25.06 95.93-0.62 45.26 15.52 68 20.5 76.74" stroke="#dedede" stroke-width="4.6109" fill="none"/>
          <path id="path5939" d="m379.11 289.33c-11.49-0.01-31.03 38.88-31.58 67.7-0.32 16.41 2.97 35.25 11.51 46.41 12.74 16.64 24.92 21.36 40.88 35.13 15.34 13.22 22.47 29.86 25.06 40.76 4.34 18.31 5.36 32.79 0 47.97-9.05 25.63-35.52 60.22-43.31 103.91-6.24 34.99-12.99 109.06 11.38 115.51" stroke="#dedede" stroke-width="4.6109" fill="none"/>
          <path id="path3294" d="m385.74 147.05c-7.19 1.03-14.29 4.29-19.38 9.73-4.06 4.75-7.11 10.3-9.53 16.25-1.72 5.74-2.5 11.42-2.67 17.44-0.02 7.08 2.68 14.1 5.57 20.57 2.67 5.47 9.3 8.7 13.21 13.48 0.11 0.19-0.06 1.62-0.09 3.18 0 0.2-0.02 0.41-0.02 0.62 0.01 0.8-0.08 1.58-0.12 2.2-0.06 1.08-0.37 2.31-0.65 3.58-0.25 1.1-0.73 2.15-0.96 3.19-0.7 3.15-1.99 5.64-2.85 5.93-0.41 0.14-1.02 0.42-1.76 0.52-4.74 0.65-15.23 1.32-19.74 1.27-7.61 0.07-14-0.03-16.64 1.83-1.86 1.13-3.3 2.43-4.23 3.13-4.98 3.71-6.73 6.64-10.59 3.75-5.25-2.92-6.95-28.36-0.85-24.05 13.26 9.27 1.83-11.63 11.61-9.16 7.2 0.58-2.45-11.74 2.6-18.64 6.34-6.07 0.38-12.24 1.57-18.26 1.18-6.02 2.56-9.47 6.31-18.24 1.68-5.72 5.53-13.13 9.62-19.58 3.86-5.39 8.56-11.14 17.26-15.6 11.17-5.42 22.84-6.33 31.41-5.03 6.07 0.79 16.81 5.53 21.89 9.91 7.8 5.95 11.63 12.21 16.48 21.1 2.84 5.8 7.96 14.3 9.53 26.31 1.68 12.86-4.78 12.45 1.13 19.82 8.07 9.65-4.12 19.74 5.75 19.07 8.05-0.71-1.91 12.28 7.81 8.68 12.12-4.49 6.52 19.43-1.35 20.27-1.9-0.21-3.63-0.61-5.33-1.2-0.87-0.3-4.21-1.52-5.15-1.96-0.27-0.13-1.93-0.75-2.23-0.83-0.39-0.11-0.67-0.19-1.08-0.29-0.32-0.08-0.49-0.09-0.81-0.16-0.12-0.03-0.97-0.22-1.09-0.24-0.06-0.01-1.47-0.3-1.55-0.31-0.11-0.02-0.44-0.03-0.87-0.12-0.39-0.08-0.73-0.13-1.22-0.24-0.51-0.11-1.02-0.18-1.55-0.25-1.06-0.14-1.65-0.34-2.39-0.43-0.16-0.02-0.32-0.05-0.49-0.07-0.76-0.05-1.54-0.15-2.69-0.21-0.94-0.05-1.54-0.19-2.95-0.31-3.26-0.29-7.12 0.35-10.9 0.47-4.28 0.14-8.9 0.2-11.92-0.24-0.49-0.08-0.82-0.22-1.14-0.3-0.38-0.08-0.73-0.34-1.09-0.47-0.48-0.18-0.71-0.43-1.02-0.82-0.29-0.37-0.4-0.76-0.6-1.07-0.04-0.1-0.11-0.21-0.16-0.32-0.02-0.06-0.03-0.09-0.06-0.17-0.02-0.05-0.04-0.09-0.05-0.14-0.01-0.04-0.02-0.07-0.04-0.11-0.42-0.97-0.56-1.99-0.66-3.23-0.1-1.44 0.54-4.29 0.56-6.05 0.02-1.41-1.28-4.16-0.44-5.73 1.64-3.09 5.61-4.51 9.31-8.29 2.81-3.05 6.71-10.36 7.97-16.33 1.05-3.95 1.79-10.03 1.24-17.16-1.08-6.25-2.64-11.95-5.33-17.66-4.88-11.66-19.34-19.65-26.59-19.03z" fill="#2f2f2f" fill-rule="evenodd"/>
          <path id="path4356" d="m452.04 433.52c-3.02-41.09-26.02-42.31-18.39-88.16 10.91-40.55 32.94-78.67 24.42-99.01-0.66-1.3-1.22-1.38-8.73-3.81-1.89-0.61-4.27-0.84-6.63-1.21-9.81-1.54-22.66-2.26-33.5-1.03-13.85 1.56-3.73-16.51-8.32-17.95-7.01-2.2-30.84-2.93-29.77 1.2 0.85 3.25 1.32 17.33-7.27 16.65-24.92-1.95-45.16 1.51-46.72 5.99-1.63 4.59-2.3 9.02-2.18 13.72 0.44 17.19 11.39 37.97 23.81 83.1 16.36 42.03-10.68 47.34-14.52 89.75 0 0 11.18 0.48 127.8 0.76z" fill="#ffddad"/>
          <path id="path5708" d="m327.24 417.58l62.91 9.1c-0.35 15.21-9.5 42.37-11.92 59.31-3.36 23.49-13.12 47.33-19.87 69.56 0.57 7.07-8.27 79.83-16.92 118.74l-17.45-0.77c0.55-43.51 4.79-111.09 7.01-118.48-5.33-28.06-14.02-101.18-3.76-137.46z" fill="#ffddad"/>
          <path id="path5710" d="m322.55 732.23c-0.01 1.76 3.48 3.57 5.39 4.57 1.38-2.2 1.35-5.1 1.45-7.61l-4.5-1.25-2.34 4.29z" fill="#818181" fill-rule="evenodd"/>
          <path id="path5712" d="m341.57 672.37c0 0.13-0.75 13.49-1.21 17.18-0.14 2.34-0.32 4.16-0.45 5.94-0.07 0.88-0.13 1.75-0.16 2.67 0.6 5.99 0.66 21.22-0.27 27.14-0.76 2.79-3.32 5.89-8.47 6.71-4.37 0.91-9.14 0.2-12.24-2.78-3.5-3.81-3.45-7.5-2.4-12.17 0.65-5.76 4.25-12.44 4.63-18.5 0.27-4.17 1.21-7.29 1.36-10.36 0.13-5.22 1.96-12.98 1.97-15.34 2.26-1.31 14.33-1.65 17.24-0.49z" fill-rule="evenodd" stroke="#f0f0f0" stroke-width=".66269px" fill="#f0f0f0"/>
          <path id="path5716" d="m389.06 410.34l61.52 11.09c3.78 18.4 0.43 50.47-1.99 70.91-3.36 28.35-11.98 64.13-19.87 83.96 0.57 8.53-8.27 96.34-16.92 143.3l-17.45-0.92c0.55-52.52 4.78-134.08 7.01-143-4.19-39.71-17.43-119.27-12.3-165.34z" fill="#ffddad"/>
          <path id="path5718" d="m392.9 789.54c0 2.11 3.49 4.3 5.4 5.51 1.38-2.66 1.35-6.15 1.45-9.19l-4.5-1.51-2.35 5.19z" fill="#818181" fill-rule="evenodd"/>
          <path id="path5720" d="m411.9 717.28c0.01 0.16-0.72 16.29-1.18 20.74-0.14 2.83-0.32 5.01-0.45 7.17-0.07 1.06-0.13 2.11-0.16 3.23 0.6 7.22 0.66 25.61-0.27 32.75-0.77 3.37-3.33 7.1-8.47 8.09-4.37 1.11-9.14 0.24-12.24-3.35-3.5-4.6-3.45-9.05-2.4-14.68 0.64-6.96 4.25-15.02 4.63-22.34 0.26-5.03 1.21-8.8 1.36-12.5 0.13-6.3 1.98-15.67 1.99-18.52 2.26-1.58 14.29-1.98 17.19-0.59z" fill-rule="evenodd" stroke="#f0f0f0" stroke-width=".72804px" fill="#f0f0f0"/>
          <path id="path4352" d="m309.86 250.73c2.25-4.1 5.76-4.78 8.22-6.02 11.57-5.83 8.59-0.74 15.07 9.48-6.27 51.95-19.91 118.21-22.15 122.45 1.74 11.41-6.22 59.83-20.06 109.68l-7.42-1.98c1.99-50.02 5.45-89.99 11.63-110.18-0.22-33.5 5.82-56.79 8.14-86.69 0.87-11.16 0.16-23.12 6.57-36.74z" fill="#fedbad"/>
          <path id="path4354" d="m290.03 482.44c5.21 3.39 6.81 5.59 5.01 7.09-0.78 0.86-2.01-0.66-3.31-1.94-3.37-3.32-6.24-0.7-1.13 3.58 7.18 6.01 5.16 8.65-1.07 2.8-3.42-3.21-5.71-1.51-0.66 2.49 7.99 6.33 5.12 8.27-1.68 2.26-3.31-2.93-3.47-0.69 0.14 2.36 4.72 3.99 2.15 5.63-1.48 1.75-2.09-2.23-2.38-0.25-1.34 1.41 1.93 3.05 0.81 3.92-0.6 2.85-4.34-5.17-5.1-20.84 1.69-25.52 1.82-1.25 2.21-0.32 4.43 0.87z" fill="#fedbad"/>
          <path id="path4442" d="m465.45 251.61c-2.25-4.11-5.62-5.19-8.14-6.3-12-5.28-8.67-0.47-15.15 9.75 6.27 51.96 19.91 118.22 22.15 122.46-1.74 11.4 6.22 59.83 20.07 109.68l7.41-1.99c-1.98-50.01-5.45-89.98-11.63-110.18 0.22-33.49-5.82-56.78-8.14-86.68-0.86-11.16-0.16-23.13-6.57-36.74z" fill="#fedbad"/>
          <path id="path4554" d="m486.57 485.36c-5.2 3.39-6.8 5.59-5 7.09 0.78 0.86 2.01-0.66 3.3-1.94 3.38-3.32 6.24-0.7 1.14 3.58-7.18 6.01-5.16 8.65 1.07 2.8 3.41-3.21 5.71-1.51 0.65 2.49-7.99 6.33-5.11 8.27 1.69 2.26 3.31-2.93 3.46-0.69-0.15 2.36-4.71 3.99-2.14 5.63 1.49 1.75 2.08-2.23 2.38-0.25 1.33 1.41-1.92 3.05-0.81 3.92 0.6 2.85 4.34-5.17 5.1-20.83-1.68-25.51-1.83-1.26-2.21-0.33-4.44 0.86z" fill="#fedbad"/>
          <path id="path5826" filter="url(#filter5933)" d="m371.18 222.98c0.07-0.26 0.27-0.49 0.52-0.68 0.15-0.11 0.32-0.21 0.49-0.3 0.19-0.09 0.38-0.18 0.57-0.25 0.48-0.2 0.7-0.33 1.74-0.53 1.47-0.29 3.23-0.46 5.03-0.56 0.68-0.03 1.36-0.09 2.04-0.09 0.62 0.01 1.16 0 1.66 0 0.59 0.01 1.12-0.02 1.61-0.01 0.28 0.01 0.55 0.02 0.82 0.02 0.28 0 0.66 0.01 1.12 0.03 0.76 0.02 1.41 0.05 2.17 0.1 1.87 0.1 4.78 0.32 7.37 0.7 0.83 0.12 1.64 0.23 2.36 0.41 0.46 0.11 0.91 0.2 1.29 0.32 0.26 0.07 0.5 0.14 0.71 0.22 0.72 0.27 0.72 0.5 0.77 0.64 0.04 0.11 0.53 0.34 0.62 0.77 0.2 0.92 0.12 2.39 0.08 2.84-0.09 1.33-0.39 3.91-0.48 5.31-0.12 1.79-0.11 3.3 0.18 4.44 0.04 0.18 0.39 1.22 0.48 1.38 0.16 0.29 0.29 0.48 0.48 0.74 0.11 0.15 0.24 0.29 0.44 0.49 0.18 0.18 0.39 0.33 0.72 0.49 0.52 0.27 0.93 0.37 1.3 0.46 0.55 0.13 1.05 0.18 1.83 0.19 0.32 0 0.53-0.02 0.8-0.03 0.48-0.02 0.95-0.07 1.37-0.11 0.39-0.03 1.14-0.13 1.3-0.15 0.2-0.02 0.7-0.05 0.96-0.08 0.83-0.08 1.77-0.12 2.52-0.17 0.87-0.06 1.56-0.17 2.53-0.2 0.75-0.02 1.49-0.05 2.4-0.04 0.92 0 1.9-0.04 2.85-0.01 0.64 0.01 1.27 0.02 1.84 0.05 0.36 0.01 0.69 0.04 1 0.06 0.28 0.01 0.52 0.03 0.76 0.06 0.27 0.03 0.51 0.04 0.78 0.04 0.24 0.01 0.46 0.02 0.69 0.03 4.56 0.18 4.36 7.3 2.17 7.94-2.97 0.87-5.44 2.26-18.81 2.37-6 0.05-11.51-1.75-13.03-1.93-3.26-0.38-7.04-1.11-9.09-0.58-2.46 0.63-2.13 0.2 0.04-1.54 1.52-1.23 2.67-1.12 5.02-1.33 4.1-0.39 5.23-0.09 5.12-0.15-1.12-0.57-1.28-3.57-1.19-6.7 0.1-3.45 0.52-7.04 0.35-7.7-0.29-1.07-1.41 4.23-4.17 6.25-5.33 3.89-13.69-0.09-17.72-5.65-1.04-1.43 1.75 10.33-3.45 13.27-1.81 1.02 3.74 0.17 6.47 0.18 2.48 0 5.65 3.29 5.13 3.52-1.89-0.26-3.58-1.23-5.67-0.77-2.39 0.6-5.47 0.99-10.03 2.03-2.39 0.55-4.93 0.94-7.39 0.95-9.8 0.02-13.81-1.06-15.69-4.27-0.63-1.16 0.13-6 0.92-6.02 0.52-0.01 1.18-0.04 1.58-0.05 0.3 0 2.36 0.03 2.74 0.03 0.75 0 1.38-0.04 2.31-0.05 1.19-0.01 2.46 0.04 3.67 0.04 2.29 0.02 3.07 0.12 5.19 0.28 1.11 0.09 1.9 0.14 3.07 0.15 0.6 0.01 1.29 0.07 2.07-0.17 0.46-0.14 0.95-0.44 1.48-0.78 0.37-0.23 0.62-0.54 0.89-0.84 0.49-0.56 0.89-1.21 1.24-1.93 0.32-0.68 0.57-1.58 0.75-2.58 0.11-0.63 0.56-2.45 0.64-4.17 0.06-1.26 0.03-2.28-0.01-2.81-0.05-0.71-0.16-1.49-0.22-2.07-0.05-0.49-0.12-0.95-0.14-1.24-0.01-0.12 0.02-0.2 0.04-0.26z" fill="#f6cd98"/>
          <path id="path5829" d="m377.42 265.72l11.51 21.77 10.63-21.72" filter="url(#filter5953)" stroke="#f6cb98" stroke-width="1px" fill="none"/>
          <path id="path5738" d="m449.92 306.02c1.9-13.29-3.57-24.51-6.47-38.63-1.14-5.54-6.2-21.75-6.37-26.42-0.03-0.59-1.3-0.48-4.75-0.88-4.97-0.59-9.64-0.84-10.66-0.77-0.42 0.03-0.66 9.33-1.18 13.68-0.91 7.71-1.28 12.76-3.9 17.22-10.44 17.71-47.18 13.76-56.16 2.02-3.81-4.97-5.46-10.11-7.08-19.22-0.8-4.52-2.18-12.33-2.45-13.64-0.02-0.07-4.25-0.13-7.16 0.03-2.97 0.16-7.04 0.48-7.04 0.55 0.05 3.67-4.58 16.36-5.9 23.73-1.34 7.46-10.11 23.94-4.25 42.18 0.28 0.89 3.78 9.01 7.39 20.51 0.22 0.69 0.42 1.37 0.62 2.08 0.25 0.88 0.52 1.77 0.79 2.67 0.14 0.48 0.29 0.96 0.43 1.44 0.21 0.76 0.45 1.52 0.66 2.29 0.23 0.8 0.48 1.61 0.7 2.43 3.14 11.61 5.32 24.47 2.94 34.96-11.96 52.62-42.82 123.04-40.42 124.75 19.81 14.06 154.6 14.83 173.38 0 1.88-1.48-10.77-38.99-21.43-75.57-0.33-1.14-0.57-2.27-0.9-3.41-0.1-0.32-0.18-0.67-0.27-0.99-0.09-0.31-0.16-0.63-0.25-0.95-0.11-0.38-0.21-0.76-0.32-1.14-3.19-10.45-7.93-21.78-9.76-33.21-7.11-44.38 7.18-57.39 9.81-75.71z" fill="url(#linearGradient3190)"/>
          <path id="path6182" opacity=".99" d="m252.35 427.15l-51.58-33.31-51.58-33.3 54.63-28.02 54.64-28.02-3.06 61.33-3.05 61.32z" fill-rule="evenodd" transform="matrix(-.13407 -.25475 .14022 -.41884 299.32 687.56)" fill="#ffa5e7"/>
          <path id="path6511" opacity=".99" d="m252.35 427.15l-51.58-33.31-51.58-33.3 54.63-28.02 54.64-28.02-3.06 61.33-3.05 61.32z" fill-rule="evenodd" transform="matrix(.12579 -.25894 -.15364 -.41410 481.81 686.74)" fill="#ffa5e7"/>
          <path id="path3298" d="m223.02 176.1a37.169 45.532 0 1 1 -74.34 0 37.169 45.532 0 1 1 74.34 0z" fill="#fedbad" transform="matrix(.89654 0 0 .89654 220.44 29.926)"/>
          <g id="g3731" transform="translate(0 4.0034)">
            <path id="path3300" d="m381.56 166.96c-5.17-5.64-12.92-6.51-20.9 0v0.73c7.55-4.74 16.38-0.22 20.9 0v-0.73z" fill="#39330e"/>
            <path id="path3302" d="m380.21 179.32c-0.98-0.69-1.12-1.1-1.93-2.02-0.3-0.34-0.67-0.7-1.05-1.04-0.16-0.14-0.33-0.27-0.49-0.4-0.14-0.12-0.31-0.22-0.44-0.33-1.07-0.9-2.49-1.57-3.88-1.89-1.1-0.28-2.11-0.32-3.05-0.24-2.46 0.21-4.36 1.41-5.68 3.23 1.44 2.94 4.2 5.29 7.55 5.55 3.4 0.26 5.83-2.06 8.97-2.86z" stroke="#000" stroke-width=".74524" fill="#fff"/>
            <path id="path3304" d="m381.26 179.15c-0.26 0.12-0.63-0.54-0.81-0.64-0.21-0.11-0.43-0.3-0.74-0.7-0.59-0.75-1.17-1.42-1.75-2.04-0.33-0.36-0.78-0.68-1.12-0.99-0.47-0.44-1.04-0.74-1.53-1.05-0.12-0.08-0.18-0.15-0.29-0.21-0.04-0.03-0.09-0.06-0.13-0.09-4.48-3-8.68-1.72-11.77 2.45-1.37-1.75-0.05-5.77 0.51-6.47 0.77-0.81 3.69-2.69 7.17-2.24 3.12 0.41 4.46 0.79 6.88 2.65 1.1 0.86 2.8 2.6 3.92 4.69 0.73 1.79 0.34 3.73-0.34 4.64z" fill="url(#linearGradient3799)"/>
            <path id="path3306" d="m381.09 179.48c-0.66-0.31-0.97-0.44-1.55-1.21-4.5-6.08-12.14-7.23-16.26-1.65-0.21-0.27-0.33-0.53-0.39-0.79-0.36-1.45 1.39-2.67 2.43-3.55 1.41-0.98 2.66-1.86 5.23-1.72 1.25 0.07 2.69 0.38 4.93 1.6 1.22 0.66 3.14 2.31 4.13 3.36 1.61 1.71 2.15 3.12 1.48 3.96z" fill="#c83771"/>
            <path id="path3308" d="m432.47 398.43a27.02 29.22 0 1 1 -54.04 0 27.02 29.22 0 1 1 54.04 0z" fill="url(#radialGradient3801)" transform="matrix(-.14181 -.012331 -.013606 .12462 434.09 133.05)"/>
            <g id="g3310" transform="matrix(-.11394 .0010415 -.0014249 .11068 417.17 132.88)">
              <path id="path3312" d="m432.18 398.43a26.728 29.22 0 1 1 -53.46 0 26.728 29.22 0 1 1 53.46 0z" transform="matrix(.62712 0 0 .68217 143.94 130.48)"/>
              <path id="path3314" opacity=".84615" d="m382.91 397.29c4.84-12.93 13.84-15.96 23.6-11.45l-0.35 1.78c-10.63-3.9-17.81-0.53-21.79 10.89l-1.46-1.22z"/>
              <path id="path3316" opacity=".84615" d="m413.26 407.27c-4.84 12.93-13.83 15.96-23.6 11.46l0.36-1.78c10.62 3.89 17.81 0.52 21.79-10.89l1.45 1.21z"/>
            </g>
            <path id="path3318" d="m380.09 401.16a3.5987 4.1128 0 1 1 -7.19 0 3.5987 4.1128 0 1 1 7.19 0z" fill="url(#radialGradient3803)" transform="matrix(-.31760 -.029827 -.029076 .28763 502.44 73.566)"/>
            <path id="path3320" d="m381.32 178.04l-0.18 0.05c0.19 0.54-0.25 0.72-0.73 1.05l0.15 0.12c0.58-0.33 1-0.64 0.76-1.22z" stroke="#241f1c" stroke-width=".11045" fill="#241f1c"/>
            <path id="path3322" d="m380.6 177.4l-0.19 0.05c0.2 0.53-0.21 0.65-0.67 1.02 0.02 0.03 0.08 0.1 0.13 0.15 0.56-0.36 0.97-0.65 0.73-1.22z" stroke="#241f1c" stroke-width=".11045" fill="#241f1c"/>
            <path id="path3324" d="m380.04 176.67l-0.19 0.04c0.19 0.54-0.21 0.7-0.69 1.01l0.12 0.15c0.58-0.32 0.99-0.62 0.76-1.2z" stroke="#241f1c" stroke-width=".11045" fill="#241f1c"/>
            <path id="path3326" d="m379.38 175.93l-0.17 0.06c0.23 0.52-0.17 0.71-0.63 1.05l0.13 0.15c0.55-0.37 0.95-0.7 0.67-1.26z" stroke="#241f1c" stroke-width=".11045" fill="#241f1c"/>
            <path id="path3328" d="m378.66 175.2l-0.18 0.07c0.26 0.51-0.13 0.71-0.58 1.08l0.15 0.14c0.53-0.39 0.91-0.74 0.61-1.29z" stroke="#241f1c" stroke-width=".11045" fill="#241f1c"/>
            <path id="path3330" d="m377.95 174.61l-0.17 0.08c0.28 0.5-0.09 0.72-0.51 1.11l0.15 0.13c0.51-0.42 0.86-0.79 0.53-1.32z" stroke="#241f1c" stroke-width=".11045" fill="#241f1c"/>
            <path id="path3332" d="m377.21 174l-0.17 0.09c0.3 0.48-0.06 0.72-0.47 1.14l0.15 0.12c0.5-0.45 0.84-0.84 0.49-1.35z" stroke="#241f1c" stroke-width=".11045" fill="#241f1c"/>
            <path id="path3334" stroke="#000" stroke-width=".11045" d="m376.41 173.45l-0.16 0.1c0.34 0.46 0 0.73-0.37 1.18l0.16 0.11c0.46-0.49 0.77-0.91 0.37-1.39z"/>
            <path id="path3336" d="m375.51 172.93l-0.15 0.12c0.37 0.41 0.05 0.72-0.29 1.21l0.17 0.09c0.42-0.54 0.7-0.99 0.27-1.42z" stroke="#241f1c" stroke-width=".11045" fill="#241f1c"/>
            <path id="path3338" d="m374.59 172.49l-0.15 0.13c0.4 0.38 0.1 0.72-0.2 1.23l0.17 0.08c0.39-0.57 0.63-1.04 0.18-1.44z" stroke="#241f1c" stroke-width=".11045" fill="#241f1c"/>
            <path id="path3340" d="m373.7 172.2l-0.14 0.14c0.42 0.36 0.14 0.71-0.13 1.24l0.18 0.06c0.35-0.59 0.56-1.07 0.09-1.44z" stroke="#241f1c" stroke-width=".11045" fill="#241f1c"/>
            <path id="path3342" d="m372.75 171.93l-0.12 0.15c0.44 0.33 0.19 0.7-0.04 1.25l0.18 0.05c0.31-0.62 0.49-1.11-0.02-1.45z" stroke="#241f1c" stroke-width=".11045" fill="#241f1c"/>
            <path id="path3344" d="m371.85 171.73l-0.12 0.16c0.46 0.28 0.22 0.67 0.01 1.24l0.19 0.03c0.28-0.64 0.44-1.14-0.08-1.43z" stroke="#241f1c" stroke-width=".11045" fill="#241f1c"/>
            <path id="path3346" d="m370.86 171.65l-0.11 0.17c0.49 0.24 0.29 0.65 0.13 1.23l0.19 0.02c0.22-0.66 0.33-1.19-0.21-1.42z" stroke="#241f1c" stroke-width=".11045" fill="#241f1c"/>
            <path id="path3348" d="m369.9 171.59l-0.09 0.18c0.5 0.19 0.34 0.62 0.24 1.21h0.19c0.16-0.68 0.22-1.21-0.34-1.39z" stroke="#241f1c" stroke-width=".11045" fill="#241f1c"/>
            <path id="path3350" d="m368.92 171.64l-0.08 0.19c0.52 0.14 0.38 0.61 0.32 1.21l0.19-0.02c0.11-0.69 0.14-1.25-0.43-1.38z" stroke="#241f1c" stroke-width=".11045" fill="#241f1c"/>
            <path id="path3352" d="m367.99 171.85l-0.06 0.2c0.53 0.08 0.44 0.53 0.43 1.13l0.19-0.04c0.05-0.7 0.03-1.22-0.56-1.29z" stroke="#241f1c" stroke-width=".11045" fill="#241f1c"/>
            <path id="path3354" d="m366.97 172.17l-0.04 0.2c0.53 0.03 0.49 0.5 0.54 1.1l0.18-0.06c-0.02-0.7-0.09-1.23-0.68-1.24z" stroke="#241f1c" stroke-width=".11045" fill="#241f1c"/>
            <path id="path3356" d="m366.01 172.6l-0.02 0.2c0.54-0.06 0.54 0.4 0.66 0.98l0.18-0.08c-0.1-0.68-0.23-1.19-0.82-1.1z" stroke="#241f1c" stroke-width=".11045" fill="#241f1c"/>
            <path id="path3358" d="m365.16 173.15v0.2c0.53-0.1 0.58 0.36 0.74 0.93l0.17-0.1c-0.15-0.68-0.33-1.17-0.91-1.03z" stroke="#241f1c" stroke-width=".11045" fill="#241f1c"/>
            <path id="path3360" d="m364.27 173.71l0.02 0.21c0.52-0.16 0.61 0.3 0.83 0.85l0.15-0.12c-0.21-0.66-0.44-1.13-1-0.94z" stroke="#241f1c" stroke-width=".11045" fill="#241f1c"/>
            <path id="path3362" d="m363.4 174.52l0.04 0.19c0.5-0.24 0.64 0.18 0.94 0.68l0.14-0.14c-0.31-0.6-0.59-1.02-1.12-0.73z" stroke="#241f1c" stroke-width=".11045" fill="#241f1c"/>
            <path id="path3364" d="m362.59 175.37l0.06 0.19c0.48-0.29 0.66 0.11 1 0.58l0.13-0.15c-0.36-0.57-0.67-0.96-1.19-0.62z" stroke="#241f1c" stroke-width=".11045" fill="#241f1c"/>
            <path id="path3366" d="m392.71 179.31c0.99-0.69 1.12-1.09 1.94-2.02 0.29-0.33 0.66-0.7 1.05-1.04 0.15-0.14 0.33-0.26 0.48-0.39 0.15-0.12 0.32-0.23 0.45-0.34 1.06-0.9 2.48-1.56 3.87-1.88 1.11-0.28 2.11-0.33 3.05-0.25 2.46 0.22 4.36 1.41 5.68 3.23-1.44 2.95-4.2 5.3-7.55 5.55-3.4 0.26-5.83-2.06-8.97-2.86z" stroke="#000" stroke-width=".74524" fill="#f0f0f0"/>
            <path id="path3368" d="m391.66 179.14c0.27 0.12 0.63-0.54 0.82-0.64 0.2-0.11 0.42-0.3 0.73-0.7 0.59-0.75 1.17-1.41 1.75-2.04 0.34-0.36 0.79-0.67 1.12-0.98 0.48-0.44 1.04-0.74 1.54-1.06 0.12-0.08 0.17-0.15 0.29-0.21l0.12-0.08c4.49-3.01 8.68-1.73 11.77 2.45 1.38-1.75 0.06-5.77-0.5-6.47-0.77-0.81-3.69-2.7-7.18-2.24-3.11 0.4-4.46 0.78-6.87 2.65-1.1 0.85-2.81 2.6-3.93 4.69-0.73 1.78-0.34 3.72 0.34 4.63z" fill="url(#linearGradient3805)"/>
            <path id="path3370" d="m391.84 179.47c0.66-0.3 0.97-0.43 1.54-1.21 4.51-6.07 12.15-7.22 16.27-1.65 0.2-0.26 0.32-0.53 0.39-0.78 0.36-1.45-1.39-2.68-2.44-3.55-1.41-0.99-2.66-1.87-5.22-1.72-1.26 0.06-2.69 0.37-4.93 1.59-1.22 0.67-3.15 2.32-4.14 3.37-1.6 1.71-2.14 3.12-1.47 3.95z" fill="#c83771"/>
            <path id="path3372" d="m432.47 398.43a27.02 29.22 0 1 1 -54.04 0 27.02 29.22 0 1 1 54.04 0z" fill="url(#radialGradient3801)" transform="matrix(.14181 -.012331 .013606 .12462 338.83 133.05)"/>
            <g id="g3374" transform="matrix(.11394 .0010415 .0014249 .11068 355.75 132.88)">
              <path id="path3376" d="m432.18 398.43a26.728 29.22 0 1 1 -53.46 0 26.728 29.22 0 1 1 53.46 0z" transform="matrix(.62712 0 0 .68217 143.94 130.48)"/>
              <path id="path3378" opacity=".84615" d="m382.91 397.29c4.84-12.93 13.84-15.96 23.6-11.45l-0.35 1.78c-10.63-3.9-17.81-0.53-21.79 10.89l-1.46-1.22z"/>
              <path id="path3380" opacity=".84615" d="m413.26 407.27c-4.84 12.93-13.83 15.96-23.6 11.46l0.36-1.78c10.62 3.89 17.81 0.52 21.79-10.89l1.45 1.21z"/>
            </g>
            <path id="path3382" d="m380.09 401.16a3.5987 4.1128 0 1 1 -7.19 0 3.5987 4.1128 0 1 1 7.19 0z" fill="url(#radialGradient3803)" transform="matrix(.31760 -.029827 .029076 .28763 270.48 73.561)"/>
            <path id="path3384" d="m391.6 178.04l0.19 0.05c-0.2 0.53 0.25 0.71 0.72 1.04-0.05 0.05-0.1 0.09-0.15 0.13-0.58-0.33-1-0.64-0.76-1.22z" stroke="#241f1c" stroke-width=".11045" fill="#241f1c"/>
            <path id="path3386" d="m392.33 177.39l0.18 0.05c-0.2 0.54 0.21 0.66 0.68 1.02-0.03 0.04-0.08 0.1-0.13 0.15-0.57-0.35-0.98-0.64-0.73-1.22z" stroke="#241f1c" stroke-width=".11045" fill="#241f1c"/>
            <path id="path3388" d="m392.89 176.66l0.18 0.05c-0.19 0.54 0.22 0.69 0.7 1l-0.13 0.16c-0.58-0.33-0.99-0.63-0.75-1.21z" stroke="#241f1c" stroke-width=".11045" fill="#241f1c"/>
            <path id="path3390" d="m393.54 175.92l0.18 0.06c-0.23 0.53 0.17 0.71 0.63 1.06l-0.13 0.14c-0.56-0.36-0.95-0.69-0.68-1.26z" stroke="#241f1c" stroke-width=".11045" fill="#241f1c"/>
            <path id="path3392" d="m394.26 175.19l0.18 0.07c-0.25 0.51 0.14 0.72 0.58 1.09l-0.14 0.13c-0.54-0.39-0.92-0.74-0.62-1.29z" stroke="#241f1c" stroke-width=".11045" fill="#241f1c"/>
            <path id="path3394" d="m394.97 174.6l0.18 0.08c-0.28 0.5 0.09 0.72 0.5 1.12l-0.14 0.13c-0.52-0.43-0.87-0.79-0.54-1.33z" stroke="#241f1c" stroke-width=".11045" fill="#241f1c"/>
            <path id="path3396" d="m395.71 174l0.17 0.08c-0.3 0.48 0.07 0.73 0.48 1.15l-0.16 0.12c-0.5-0.45-0.84-0.84-0.49-1.35z" stroke="#241f1c" stroke-width=".11045" fill="#241f1c"/>
            <path id="path3398" stroke="#000" stroke-width=".11045" d="m396.51 173.44l0.16 0.11c-0.34 0.45 0 0.73 0.37 1.18l-0.16 0.1c-0.46-0.49-0.76-0.91-0.37-1.39z"/>
            <path id="path3400" d="m397.41 172.92l0.16 0.12c-0.37 0.42-0.05 0.73 0.28 1.21l-0.17 0.09c-0.42-0.53-0.69-0.98-0.27-1.42z" stroke="#241f1c" stroke-width=".11045" fill="#241f1c"/>
            <path id="path3402" d="m398.34 172.49l0.14 0.13c-0.39 0.38-0.09 0.72 0.21 1.23l-0.17 0.08c-0.39-0.57-0.64-1.04-0.18-1.44z" stroke="#241f1c" stroke-width=".11045" fill="#241f1c"/>
            <path id="path3404" d="m399.22 172.18l0.13 0.14c-0.41 0.36-0.13 0.71 0.14 1.24l-0.18 0.06c-0.35-0.59-0.57-1.07-0.09-1.44z" stroke="#241f1c" stroke-width=".11045" fill="#241f1c"/>
            <path id="path3406" d="m400.2 171.88l0.13 0.15c-0.45 0.33-0.19 0.7 0.04 1.25l-0.19 0.05c-0.3-0.62-0.48-1.11 0.02-1.45z" stroke="#241f1c" stroke-width=".11045" fill="#241f1c"/>
            <path id="path3408" d="m401.07 171.73l0.12 0.16c-0.46 0.28-0.22 0.67-0.01 1.24l-0.18 0.03c-0.29-0.64-0.45-1.14 0.07-1.43z" stroke="#241f1c" stroke-width=".11045" fill="#241f1c"/>
            <path id="path3410" d="m402.07 171.63l0.1 0.17c-0.48 0.24-0.28 0.66-0.13 1.24l-0.18 0.02c-0.22-0.67-0.33-1.19 0.21-1.43z" stroke="#241f1c" stroke-width=".11045" fill="#241f1c"/>
            <path id="path3412" d="m403.03 171.57l0.09 0.19c-0.5 0.19-0.34 0.62-0.24 1.21h-0.19c-0.16-0.68-0.22-1.21 0.34-1.4z" stroke="#241f1c" stroke-width=".11045" fill="#241f1c"/>
            <path id="path3414" d="m404 171.63l0.08 0.19c-0.52 0.14-0.38 0.61-0.32 1.21l-0.19-0.02c-0.11-0.69-0.14-1.25 0.43-1.38z" stroke="#241f1c" stroke-width=".11045" fill="#241f1c"/>
            <path id="path3416" d="m404.93 171.85l0.06 0.19c-0.53 0.09-0.44 0.53-0.44 1.14l-0.18-0.04c-0.05-0.7-0.03-1.23 0.56-1.29z" stroke="#241f1c" stroke-width=".11045" fill="#241f1c"/>
            <path id="path3418" d="m405.97 172.16l0.04 0.2c-0.53 0.04-0.49 0.5-0.54 1.1l-0.18-0.06c0.02-0.7 0.09-1.23 0.68-1.24z" stroke="#241f1c" stroke-width=".11045" fill="#241f1c"/>
            <path id="path3420" d="m406.94 172.58l0.02 0.2c-0.54-0.05-0.54 0.4-0.66 0.99l-0.18-0.08c0.1-0.69 0.23-1.2 0.82-1.11z" stroke="#241f1c" stroke-width=".11045" fill="#241f1c"/>
            <path id="path3422" d="m407.82 173.06l0.01 0.2c-0.54-0.1-0.58 0.36-0.75 0.93l-0.16-0.1c0.15-0.67 0.32-1.17 0.9-1.03z" stroke="#241f1c" stroke-width=".11045" fill="#241f1c"/>
            <path id="path3424" d="m408.67 173.65l-0.02 0.21c-0.52-0.15-0.61 0.3-0.83 0.85l-0.15-0.12c0.21-0.66 0.44-1.13 1-0.94z" stroke="#241f1c" stroke-width=".11045" fill="#241f1c"/>
            <path id="path3426" d="m409.57 174.47l-0.04 0.2c-0.5-0.25-0.64 0.17-0.94 0.67l-0.14-0.14c0.31-0.6 0.59-1.02 1.12-0.73z" stroke="#241f1c" stroke-width=".11045" fill="#241f1c"/>
            <path id="path3428" d="m410.35 175.32l-0.06 0.18c-0.48-0.28-0.66 0.12-0.99 0.59l-0.13-0.16c0.35-0.56 0.67-0.96 1.18-0.61z" stroke="#241f1c" stroke-width=".11045" fill="#241f1c"/>
            <path id="path3430" d="m392.08 166.97c5.17-5.63 12.92-6.5 20.9 0v0.73c-7.54-4.74-16.38-0.22-20.9 0v-0.73z" fill="#39330e"/>
          </g>
          <g id="g3432" fill="#fdc676" transform="matrix(.96474 0 0 .96474 45.141 7.8156)">
            <path id="path3434" d="m346.72 189.82a1.6996 2.3794 0 1 1 -3.4 0 1.6996 2.3794 0 1 1 3.4 0z" transform="matrix(0 -.642 .62042 0 233.97 414.83)"/>
            <path id="path3436" d="m346.72 189.82a1.6996 2.3794 0 1 1 -3.4 0 1.6996 2.3794 0 1 1 3.4 0z" transform="matrix(0 -.642 .62042 0 239.97 414.83)"/>
          </g>
          <g id="g3438" transform="matrix(.64443 0 0 .64443 172.68 88.241)">
            <path id="path3440" d="m314.82 187.03c1.05-1.13 3.28 0.49 7.07-1.8 2.85-1.5 4.99-2.23 7.07-1.87 2.06 0.59 2.93 2.41 4.65 2.73 1.63-0.35 1.96-1.81 4.12-2.52 2.37-0.72 4-0.03 6.39 1.7 2.71 2.39 6.34 0.76 7.11 2.32-0.55 1.43-2.14 3.19-3.49 4.1-9.51 6.95-17.74 6.57-28.47 1.04-2.11-1.22-4.22-3.44-4.45-5.7z" fill="#ca3b73"/>
            <path id="path3442" opacity=".69048" d="m342.79 211.93c0.39-0.36 4.16-0.47 7.21-0.15 1.87 0.19 3.5 0.26 3.98 0.2 0.57-0.01 2.29 0.07 4.26-0.2 2.95-0.4 6.3-0.53 6.6-0.07-1.33 1.54-4 2.59-7.13 3.1-1.65 0.27-2.41 0.42-3.61 0.36-5-0.25-9.68-0.84-11.31-3.24z" transform="matrix(1.0349 0 0 1.0349 -32.561 -27.543)" filter="url(#filter4926)" fill="url(#linearGradient3725)"/>
            <path id="path3444" opacity=".69048" d="m343.77 206.2c1.94-1.07 2.6-1.44 4.01-1.53 0.55-0.02 3.24 0.95 3.8 2.02-3.05 4.24-10.39 1.15-7.81-0.49z" transform="matrix(1.0349 0 0 1.0349 -32.561 -27.543)" filter="url(#filter4850)" fill="url(#linearGradient3727)"/>
            <path id="path3446" opacity=".69048" d="m363.48 206.27c-1.94-1.08-2.6-1.45-4.01-1.54-0.55-0.02-3.24 0.96-3.8 2.02 3.05 4.25 10.39 1.15 7.81-0.48z" transform="matrix(1.0349 0 0 1.0349 -32.561 -27.543)" filter="url(#filter4890)" fill="url(#linearGradient3729)"/>
          </g>
        </g>
      </g>
    </g>
  </g>
</svg>
